<?xml version="1.0" encoding="UTF-8" standalone="no"?>
<!-- Created with Inkscape (http://www.inkscape.org/) -->

<svg
   xmlns:dc="http://purl.org/dc/elements/1.1/"
   xmlns:cc="http://creativecommons.org/ns#"
   xmlns:rdf="http://www.w3.org/1999/02/22-rdf-syntax-ns#"
   xmlns:svg="http://www.w3.org/2000/svg"
   xmlns="http://www.w3.org/2000/svg"
   xmlns:sodipodi="http://sodipodi.sourceforge.net/DTD/sodipodi-0.dtd"
   xmlns:inkscape="http://www.inkscape.org/namespaces/inkscape"
   id="svg3029"
   version="1.1"
   inkscape:version="0.48.3.1 r9886"
   width="170"
   height="50"
   xml:space="preserve"
   sodipodi:docname="ccnew.eps"><metadata
     id="metadata3035"><rdf:RDF><cc:Work
         rdf:about=""><dc:format>image/svg+xml</dc:format><dc:type
           rdf:resource="http://purl.org/dc/dcmitype/StillImage" /><dc:title></dc:title></cc:Work></rdf:RDF></metadata><defs
     id="defs3033" /><sodipodi:namedview
     pagecolor="#ffffff"
     bordercolor="#666666"
     borderopacity="1"
     objecttolerance="10"
     gridtolerance="10000"
     guidetolerance="10"
     inkscape:pageopacity="0"
     inkscape:pageshadow="2"
     inkscape:window-width="1270"
     inkscape:window-height="883"
     id="namedview3031"
     showgrid="true"
     width="524.41px"
     fit-margin-top="0"
     fit-margin-left="0"
     fit-margin-right="0"
     fit-margin-bottom="0"
     inkscape:zoom="2"
     inkscape:cx="8.5288812"
     inkscape:cy="-17.42125"
     inkscape:window-x="0"
     inkscape:window-y="25"
     inkscape:window-maximized="0"
     inkscape:current-layer="g3037"><inkscape:grid
       type="xygrid"
       id="grid3132"
       empspacing="5"
       visible="true"
       enabled="true"
       snapvisiblegridlinesonly="true"
       spacingx="5px"
       spacingy="5px"
       dotted="false"
       originx="0px"
       originy="0px" /></sodipodi:namedview><g
     id="g3037"
     inkscape:groupmode="layer"
     inkscape:label="ink_ext_XXXXXX"
     transform="matrix(1.25,0,0,-1.25,0,50.000001)"><g
       id="g3039"
       transform="scale(0.07279133,0.07279133)"
       style="fill:#c4c4c4;fill-opacity:1"><path
         d="m 274.27,549.516 c 76.859,0 142.285,-26.825 196.253,-80.469 25.836,-25.84 45.457,-55.359 58.875,-88.559 13.411,-33.203 20.118,-68.441 20.118,-105.73 0,-37.621 -6.625,-72.86 -19.871,-105.735 C 516.398,136.152 496.848,107.121 471.012,81.9375 444.191,55.4453 413.77,35.1562 379.758,21.0977 345.734,7.03125 310.578,0 274.27,0 237.961,0 203.203,6.94141 170.004,20.8555 136.801,34.75 107.035,54.8672 80.707,81.2031 54.375,107.523 34.3477,137.211 20.6055,170.25 6.87109,203.285 0,238.121 0,274.758 c 0,36.304 6.94531,71.219 20.8555,104.75 13.8945,33.523 34.0976,63.539 60.5898,90.035 52.3277,53.309 116.6017,79.973 192.8247,79.973 z m 0.98,-49.555 c -62.805,0 -115.629,-21.918 -158.477,-65.746 C 95.1875,412.297 78.5781,387.68 66.9727,360.371 55.3555,333.055 49.5547,304.516 49.5547,274.758 c 0,-29.442 5.8008,-57.82 17.418,-85.125 11.6054,-27.321 28.2148,-51.688 49.8003,-73.106 21.586,-21.4293 45.954,-37.7809 73.106,-49.0661 27.144,-11.2851 55.601,-16.9218 85.371,-16.9218 29.438,0 57.969,5.7148 85.613,17.1718 27.637,11.4453 52.575,27.9649 74.825,49.5511 42.847,41.863 64.273,94.363 64.273,157.496 0,30.418 -5.566,59.199 -16.684,86.351 -11.125,27.149 -27.316,51.348 -48.57,72.618 -44.16,44.156 -97.312,66.234 -159.457,66.234 z M 271.812,320.387 235.016,301.25 c -3.926,8.176 -8.754,13.902 -14.473,17.172 -5.727,3.266 -11.039,4.91 -15.949,4.91 -24.532,0 -36.797,-16.195 -36.797,-48.574 0,-14.719 3.105,-26.496 9.324,-35.324 6.211,-8.832 15.371,-13.254 27.473,-13.254 16.027,0 27.312,7.851 33.859,23.554 l 33.852,-17.172 c -7.196,-13.417 -17.172,-23.964 -29.93,-31.644 -12.754,-7.691 -26.824,-11.535 -42.195,-11.535 -24.532,0 -44.325,7.527 -59.364,22.57 -15.05,15.043 -22.574,35.981 -22.574,62.805 0,26.164 7.61,46.93 22.817,62.312 15.211,15.371 34.421,23.059 57.648,23.059 34.02,0 58.387,-13.25 73.105,-39.742 z m 158.477,0 -36.305,-19.137 c -3.925,8.176 -8.754,13.902 -14.476,17.172 -5.727,3.266 -11.207,4.91 -16.438,4.91 -24.531,0 -36.797,-16.195 -36.797,-48.574 0,-14.719 3.106,-26.496 9.325,-35.324 6.211,-8.832 15.371,-13.254 27.472,-13.254 16.028,0 27.313,7.851 33.856,23.554 l 34.344,-17.172 c -7.528,-13.417 -17.661,-23.964 -30.418,-31.644 -12.754,-7.691 -26.661,-11.535 -41.707,-11.535 -24.856,0 -44.731,7.527 -59.61,22.57 -14.887,15.043 -22.324,35.981 -22.324,62.805 0,26.164 7.605,46.93 22.812,62.312 15.211,15.371 34.426,23.059 57.653,23.059 34.015,0 58.219,-13.25 72.613,-39.742"
         style="fill:#c4c4c4;fill-opacity:1;fill-rule:nonzero;stroke:none"
         id="path3041"
         inkscape:connector-curvature="0" /></g><g
       id="g3086"
       transform="matrix(0.07279133,0,0,0.07279133,48,0)"
       style="fill:#c4c4c4;fill-opacity:1"><path
         inkscape:connector-curvature="0"
         d="m 274.27,549.516 c 77.191,0 142.285,-26.493 195.273,-79.489 53.309,-53.312 79.973,-118.406 79.973,-195.269 0,-77.199 -26.172,-141.473 -78.504,-192.8205 C 415.402,27.3047 349.824,0 274.27,0 200.012,0 135.578,26.9883 80.957,80.957 26.9883,134.926 0,199.52 0,274.758 c 0,75.226 26.9883,140.32 80.957,195.269 52.988,52.996 117.422,79.489 193.313,79.489 z m 0.98,-49.555 c -62.48,0 -115.305,-21.918 -158.477,-65.746 C 71.9531,388.418 49.5547,335.27 49.5547,274.758 c 0,-60.84 22.2383,-113.508 66.7263,-157.985 44.481,-44.4878 97.469,-66.73 158.969,-66.73 61.16,0 114.477,22.4023 159.945,67.219 43.18,41.539 64.766,94.039 64.766,157.496 0,62.472 -21.918,115.625 -65.746,159.457 -43.832,43.828 -96.82,65.746 -158.965,65.746 z m 73.594,-157.008 0,-112.351 -31.403,0 0,-133.4536 -85.371,0 0,133.4536 -31.402,0 0,112.351 c 0,4.906 1.719,9.078 5.152,12.516 3.438,3.433 7.61,5.152 12.516,5.152 l 112.848,0 c 4.574,0 8.66,-1.719 12.261,-5.152 3.598,-3.438 5.399,-7.61 5.399,-12.516 z m -112.356,70.656 c 0,25.832 12.754,38.758 38.27,38.758 25.512,0 38.269,-12.926 38.269,-38.758 0,-25.515 -12.757,-38.273 -38.269,-38.273 -25.516,0 -38.27,12.758 -38.27,38.273"
         style="fill:#c4c4c4;fill-opacity:1;fill-rule:nonzero;stroke:none"
         id="path3088" /></g><g
       id="g3072"
       transform="matrix(0.07279133,0,0,0.07279186,96,0)"
       style="fill:#c4c4c4;fill-opacity:1"><path
         inkscape:connector-curvature="0"
         d="m 274.27,549.512 c 76.859,0 141.953,-26.66 195.273,-79.977 53.309,-52.988 79.973,-117.918 79.973,-194.777 0,-76.871 -26.172,-141.305 -78.504,-193.3127 C 415.734,27.1445 350.148,0 274.27,0 200.012,0 135.578,26.9844 80.957,80.9531 26.9883,134.922 0,199.516 0,274.758 c 0,74.894 26.9883,139.828 80.957,194.777 53.313,53.317 117.75,79.977 193.313,79.977 z m 0.98,-49.555 c -62.48,0 -115.305,-22.074 -158.477,-66.234 C 71.9531,388.254 49.5547,335.266 49.5547,274.758 49.5547,213.586 71.793,160.93 116.281,116.77 160.762,72.2812 213.75,50.043 275.25,50.043 c 61.16,0 114.477,22.3984 159.945,67.219 43.18,41.863 64.766,94.363 64.766,157.496 0,62.801 -21.918,115.789 -65.746,158.965 -43.508,44.16 -96.496,66.234 -158.965,66.234 z M 152.59,313.516 c 5.226,33.687 18.801,59.777 40.722,78.257 21.907,18.477 48.575,27.719 79.973,27.719 43.176,0 77.52,-13.906 103.035,-41.703 25.512,-27.805 38.27,-63.461 38.27,-106.961 0,-42.195 -13.246,-77.273 -39.742,-105.242 -26.493,-27.965 -60.84,-41.949 -103.036,-41.949 -31.078,0 -57.894,9.324 -80.464,27.968 -22.567,18.645 -36.141,45.137 -40.723,79.485 l 69.18,0 c 1.636,-33.363 21.75,-50.043 60.351,-50.043 19.293,0 34.836,8.34 46.606,25.019 11.777,16.684 17.668,38.918 17.668,66.727 0,29.105 -5.395,51.269 -16.192,66.48 -10.797,15.211 -26.332,22.817 -46.613,22.817 -36.633,0 -57.238,-16.192 -61.82,-48.574 l 20.117,0 -54.461,-54.461 -54.461,54.461 21.59,0"
         style="fill:#c4c4c4;fill-opacity:1;fill-rule:nonzero;stroke:none"
         id="path3074" /></g></g></svg>